sumo_dl_3
version=1
nRows=17
nColumns=46
inDegrees=yes
endheader
time	ground_force3_vx	ground_force3_vy	ground_force3_vz	ground_force3_px	ground_force3_py	ground_force3_pz	ground_torque3_x	ground_torque3_y	ground_torque3_z	ground_force5_vx	ground_force5_vy	ground_force5_vz	ground_force5_px	ground_force5_py	ground_force5_pz	ground_torque5_x	ground_torque5_y	ground_torque5_z	ground_force4_vx	ground_force4_vy	ground_force4_vz	ground_force4_px	ground_force4_py	ground_force4_pz	ground_torque4_x	ground_torque4_y	ground_torque4_z	ground_force1_vx	ground_force1_vy	ground_force1_vz	ground_force1_px	ground_force1_py	ground_force1_pz	ground_torque1_x	ground_torque1_y	ground_torque1_z	ground_force2_vx	ground_force2_vy	ground_force2_vz	ground_force2_px	ground_force2_py	ground_force2_pz	ground_torque2_x	ground_torque2_y	ground_torque2_z
12.355000	2.270414	473.359222	-180.074982	0.160016	0.000000	-0.453532	0.000013	-0.072335	0.000005	-14.694917	479.229919	180.692368	0.187983	0.000000	-1.438943	0.000043	2.946369	0.000004	-1.619970	-7.413662	2.436271	0.200000	0.000000	-0.900000	-0.000000	-0.323878	-0.000000	-1.224411	5.954845	0.227998	0.207975	0.000000	1.049085	-0.000001	-0.101289	0.000000	-3.470625	-110.212189	-1.056079	0.200000	0.000000	0.320000	0.000002	1.654881	-0.000000	
12.356000	1.466049	473.040649	-180.397232	0.159608	0.000000	-0.454666	0.000010	-0.094812	0.000006	-15.659648	480.189880	180.853912	0.188795	0.000000	-1.438135	0.000014	2.697982	0.000006	-2.265685	-8.051090	1.631560	0.200000	0.000000	-0.900000	-0.000000	-0.240751	-0.000000	-0.577678	6.584980	0.065766	0.181551	0.000000	1.054320	0.000000	-0.024217	0.000000	-2.990627	-111.495827	-0.251198	0.200000	0.000000	0.320000	0.000003	1.474820	-0.000000	
12.357000	1.948669	473.355927	-179.914185	0.159693	0.000000	-0.453487	0.000008	-0.196928	0.000002	-15.981563	482.100891	181.014786	0.188312	0.000000	-1.439402	0.000067	2.806961	-0.000001	-2.748813	-6.139133	1.470006	0.200000	0.000000	-0.900000	-0.000000	-0.163512	-0.000000	-1.707100	4.697851	-0.738603	0.218965	0.000000	1.075405	-0.000000	0.072633	0.000000	-3.150908	-108.947433	-0.892661	0.200000	0.000000	0.320000	0.000002	1.429900	-0.000000	
12.358000	1.787796	472.723755	-180.074631	0.159633	0.000000	-0.453727	-0.000002	0.003378	-0.000004	-15.499454	482.418457	181.496048	0.188593	0.000000	-1.440031	-0.000007	2.800488	0.000003	-2.423639	-7.413661	2.114183	0.200000	0.000000	-0.900000	-0.000000	-0.098232	-0.000000	-1.871145	6.586609	-0.416686	0.192802	0.000000	1.031161	-0.000000	-0.049166	0.000000	-1.865273	-110.852562	-0.410546	0.200000	0.000000	0.320000	0.000003	1.449699	-0.000000	
12.359000	2.270414	473.988098	-179.590576	0.159720	0.000000	-0.452358	0.000011	0.212070	0.000005	-16.303480	482.416779	181.656586	0.187906	0.000000	-1.438747	0.000045	2.742535	0.000004	-2.914488	-6.455319	1.631560	0.200000	0.000000	-0.900000	-0.000000	-0.306095	-0.000000	-1.709676	6.587849	-1.383288	0.215966	0.000000	0.985795	-0.000000	0.078071	0.000000	-2.669218	-111.808296	-0.411564	0.200000	0.000000	0.320000	0.000003	1.455745	-0.000000	
12.360000	1.948669	474.303040	-180.074982	0.159857	0.000000	-0.453612	0.000015	0.077120	-0.000001	-15.821879	482.098572	181.496735	0.188324	0.000000	-1.439611	0.000034	2.965027	0.000010	-2.425183	-7.416017	2.116222	0.200000	0.000000	-0.900000	-0.000000	-0.085657	-0.000000	-1.225270	5.010223	-0.094768	0.227879	0.000000	1.084774	-0.000000	-0.166696	0.000000	-2.185835	-108.952232	-0.894696	0.200000	0.000000	0.320000	0.000002	1.571910	-0.000000	
12.361000	2.109542	474.303345	-180.397232	0.159683	0.000000	-0.452767	0.000015	0.016200	-0.000002	-15.983092	483.374420	181.014114	0.188025	0.000000	-1.439570	-0.000020	2.977416	0.000011	-3.075531	-7.411642	2.273698	0.200000	0.000000	-0.900000	-0.000000	-0.350943	-0.000000	-0.902333	6.898458	-1.382439	0.183767	0.000000	1.009707	-0.000000	-0.135011	0.000000	-2.669218	-108.632591	-0.571929	0.200000	0.000000	0.320000	0.000002	1.436501	-0.000000	
12.362000	2.109542	473.354309	-180.075317	0.159563	0.000000	-0.453494	0.000013	-0.006960	-0.000003	-16.787628	481.460754	181.496735	0.188217	0.000000	-1.439276	0.000080	2.920833	0.000003	-3.075531	-5.494965	2.275737	0.200000	0.000000	-0.900000	-0.000000	-0.273642	-0.000000	-1.224411	5.642217	-0.739452	0.228064	0.000000	1.013088	-0.000001	0.042923	0.000000	-3.311190	-109.903175	-0.572947	0.200000	0.000000	0.320000	0.000002	1.539054	-0.000000	
12.363000	2.592161	473.355927	-179.590576	0.159751	0.000000	-0.453455	-0.000001	0.165900	0.000005	-15.820861	482.101593	181.818146	0.188492	0.000000	-1.439064	0.000057	2.800946	0.000007	-2.751901	-6.451298	2.115203	0.200000	0.000000	-0.900000	-0.000000	-0.254068	-0.000000	-1.061225	5.009214	-0.899987	0.216653	0.000000	1.076859	0.000000	0.062634	0.000000	-1.863580	-111.492371	0.233969	0.200000	0.000000	0.320000	0.000003	1.539409	-0.000000	
12.364000	3.235651	472.086731	-179.591248	0.159166	0.000000	-0.454445	0.000001	-0.118602	0.000003	-15.339259	479.551453	182.139542	0.188317	0.000000	-1.439221	0.000025	3.029110	0.000001	-2.106187	-6.452293	2.276757	0.200000	0.000000	-0.900000	-0.000000	-0.298790	-0.000000	-1.061225	5.639872	0.066615	0.203503	0.000000	1.116581	0.000000	-0.033677	0.000000	-2.186681	-112.127068	0.228881	0.200000	0.000000	0.320000	0.000003	1.603725	-0.000000	
12.365000	4.040016	471.141907	-179.590576	0.159370	0.000000	-0.454370	0.000011	-0.289382	0.000001	-15.178046	476.998352	182.460281	0.188122	0.000000	-1.438604	0.000044	2.959502	0.000007	-1.938966	-9.972802	2.597825	0.200000	0.000000	-0.900000	-0.000000	-0.110623	-0.000000	-0.738288	5.327826	-0.256151	0.200558	0.000000	1.012368	-0.000001	0.081266	0.000000	-1.221608	-112.766563	-0.252216	0.200000	0.000000	0.320000	0.000003	1.610783	-0.000000	
12.366000	3.879142	469.242126	-179.429779	0.158639	0.000000	-0.455279	0.000008	-0.289797	-0.000001	-15.821879	479.230896	183.263626	0.188344	0.000000	-1.438939	0.000035	2.875087	0.000005	-2.104642	-9.653914	3.240983	0.200000	0.000000	-0.900000	-0.000000	-0.310998	-0.000000	-0.000000	-0.000000	0.000000	0.200000	0.000000	0.920000	0.000000	0.000000	0.000000	-1.543863	-115.938011	0.875431	0.200000	0.000000	0.320000	0.000003	1.487990	-0.000000	
12.367000	3.396524	470.825684	-179.107178	0.159170	0.000000	-0.453684	0.000016	-0.133073	0.000000	-15.338241	479.226532	182.460953	0.187921	0.000000	-1.438769	0.000012	2.969474	0.000006	-0.971166	-10.297067	2.114182	0.200000	0.000000	-0.900000	-0.000000	-0.258657	-0.000000	-0.000000	-0.000000	0.000000	0.200000	0.000000	0.920000	0.000000	0.000000	0.000000	-2.185835	-115.944107	0.552665	0.200000	0.000000	0.320000	0.000003	1.590665	-0.000000	
12.368000	3.557397	472.403931	-180.074982	0.159450	0.000000	-0.454554	0.000017	-0.118059	0.000000	-15.982583	478.911987	183.424500	0.188244	0.000000	-1.438755	0.000033	2.869733	0.000002	-1.942055	-8.697935	2.437291	0.200000	0.000000	-0.900000	-0.000000	-0.220811	-0.000000	-0.000000	-0.000000	0.000000	0.200000	0.000000	0.920000	0.000000	0.000000	0.000000	-1.865273	-113.083405	-0.090833	0.200000	0.000000	0.320000	0.000003	1.526797	-0.000000	
12.369000	3.879142	470.508423	-178.945038	0.159126	0.000000	-0.453922	-0.000004	-0.016124	0.000008	-15.820861	478.590454	183.585373	0.188023	0.000000	-1.438315	0.000059	2.837854	-0.000001	-2.103097	-12.213390	3.081468	0.200000	0.000000	-0.900000	-0.000000	-0.188358	-0.000000	-0.000000	-0.000000	0.000000	0.200000	0.000000	0.920000	0.000000	0.000000	0.000000	-2.026400	-114.361275	0.875431	0.200000	0.000000	0.320000	0.000003	1.455595	-0.000000	
12.370000	3.074777	471.136322	-179.429779	0.158968	0.000000	-0.454024	0.000010	-0.327295	0.000001	-16.143797	478.913696	183.103775	0.188545	0.000000	-1.438781	0.000029	2.910847	0.000003	-1.457383	-9.332685	2.435251	0.200000	0.000000	-0.900000	-0.000000	-0.330012	-0.000000	-0.000000	-0.000000	0.000000	0.200000	0.000000	0.920000	0.000000	0.000000	0.000000	-2.346117	-112.124855	-0.090833	0.200000	0.000000	0.320000	0.000003	1.622966	-0.000000	
12.371000	3.074779	471.138306	-179.752380	0.158970	0.000000	-0.454062	0.000012	-0.082929	-0.000002	-16.143288	477.952026	183.263626	0.187657	0.000000	-1.438270	0.000052	2.906311	0.000008	-1.943599	-8.051759	2.760400	0.200000	0.000000	-0.900000	-0.000000	-0.246764	-0.000000	-0.000000	-0.000000	0.000000	0.200000	0.000000	0.920000	0.000000	0.000000	0.000000	-2.025554	-110.855301	0.232951	0.200000	0.000000	0.320000	0.000003	1.481511	-0.000000	
